<svg xmlns="http://www.w3.org/2000/svg" viewBox="0 0 512 512"><defs><style>.cls-1{fill:#fff;}</style></defs><title>isotipo_512</title><g id="Capa_2" data-name="Capa 2"><g id="final"><rect class="cls-1" x="54.26" y="370.73" width="135.35" height="38.67" rx="19.34" transform="translate(-240.1 200.47) rotate(-45)"/><rect class="cls-1" x="54.64" y="301.09" width="77.34" height="38.67" rx="19.34" transform="translate(-199.24 159.83) rotate(-45)"/><rect class="cls-1" x="152.91" y="399.36" width="77.34" height="38.67" rx="19.34" transform="translate(-239.95 258.1) rotate(-45)"/><path class="cls-1" d="M373.76,329q7.51-6.82,14.78-14.09c86.92-86.92,128.05-202,123-314.46-112.48-5-227.54,36.13-314.46,123.05q-7.26,7.26-14.09,14.78A154.88,154.88,0,0,0,0,227.11a155.22,155.22,0,0,1,120.92,0q-6.45,12.39-12,25.09L157,300.34,292.84,164.47a38.68,38.68,0,0,1,54.69,0h0a38.68,38.68,0,0,1,0,54.69L211.66,355l48.09,48.09q12.69-5.58,25.09-12A155.22,155.22,0,0,1,284.89,512a154.88,154.88,0,0,0,88.87-183Zm1.11-191.83a38.67,38.67,0,1,1,54.69,0A38.68,38.68,0,0,1,374.87,137.13Z"/></g></g></svg>